<?xml version="1.0" standalone="no"?>
<!DOCTYPE svg PUBLIC "-//W3C//DTD SVG 20010904//EN"
 "http://www.w3.org/TR/2001/REC-SVG-20010904/DTD/svg10.dtd">
<svg version="1.0" xmlns="http://www.w3.org/2000/svg"
 width="415.000000pt" height="415.000000pt" viewBox="0 0 415.000000 415.000000"
 preserveAspectRatio="xMidYMid meet">
<metadata>
Created by potrace 1.14, written by Peter Selinger 2001-2017
</metadata>
<g transform="translate(0.000000,415.000000) scale(0.100000,-0.100000)"
fill="#000000" stroke="none">
<path d="M4037 3864 c-1 -1 -21 -4 -45 -8 -24 -3 -47 -8 -53 -11 -5 -4 -9 0
-9 7 0 9 -3 9 -10 -2 -5 -8 -10 -12 -10 -8 0 4 -15 2 -32 -3 -18 -6 -37 -12
-43 -13 -16 -5 -47 -17 -105 -44 -56 -25 -71 -27 -217 -19 -49 3 -83 1 -83 -5
0 -5 -4 -7 -10 -3 -5 3 -26 -1 -47 -10 -21 -9 -39 -15 -40 -13 -1 2 -11 -5
-23 -14 -11 -10 -20 -14 -20 -10 0 4 -7 -2 -15 -12 -8 -11 -15 -17 -15 -13 0
5 -6 2 -14 -5 -8 -7 -12 -16 -9 -20 2 -5 -2 -8 -9 -8 -8 0 -27 -22 -42 -49
-28 -47 -68 -72 -82 -50 -3 5 -14 4 -25 -1 -10 -6 -19 -7 -19 -2 0 4 -19 7
-42 6 -24 -1 -43 -3 -43 -4 0 -1 -18 -3 -40 -5 -22 -2 -49 -5 -60 -8 -11 -3
-27 -7 -35 -9 -8 -1 -42 -17 -77 -34 -34 -17 -59 -26 -56 -21 8 13 -69 -44
-79 -58 -4 -5 -8 -7 -8 -3 0 4 -27 -19 -60 -52 -53 -52 -79 -70 -103 -70 -4 0
-23 -6 -42 -14 -20 -9 -39 -16 -43 -17 -4 -1 -15 -4 -24 -7 -10 -2 -18 -9 -18
-15 0 -6 -3 -7 -6 -4 -4 4 -34 -13 -68 -37 -51 -36 -69 -43 -107 -43 -37 0
-105 -10 -129 -18 -48 -17 -70 -29 -70 -36 0 -5 -4 -8 -9 -7 -11 3 -101 -89
-101 -103 0 -6 -5 -7 -12 -3 -7 4 -8 3 -4 -5 4 -6 -3 -26 -16 -44 -13 -17 -22
-33 -20 -34 1 -2 2 -9 2 -15 0 -9 -17 -13 -52 -12 -29 1 -59 -3 -65 -9 -7 -5
-13 -7 -13 -3 0 3 -30 -10 -67 -30 -69 -37 -183 -144 -183 -171 0 -8 -7 -21
-15 -30 -8 -8 -13 -19 -9 -24 3 -6 2 -15 -3 -22 -10 -14 -9 -106 2 -159 5 -27
4 -38 -4 -38 -7 0 -10 -4 -6 -9 3 -5 -3 -12 -12 -15 -31 -10 -66 -85 -68 -144
-1 -29 2 -55 7 -58 5 -3 6 -10 3 -15 -4 -5 -1 -9 5 -9 6 0 8 -4 5 -10 -3 -5
-1 -10 5 -10 7 0 21 -11 32 -25 11 -14 24 -23 29 -20 5 4 9 1 9 -4 0 -6 9 -11
21 -11 11 0 17 -4 14 -10 -3 -5 0 -10 7 -10 7 0 1 -8 -14 -18 -16 -9 -28 -20
-28 -24 0 -5 -5 -8 -11 -8 -33 0 -112 -141 -95 -169 3 -5 0 -11 -8 -14 -7 -3
-16 -22 -20 -41 -4 -20 -10 -36 -15 -36 -4 0 -8 -6 -8 -12 0 -20 -74 -169 -93
-188 -3 -3 -18 -24 -34 -48 -16 -23 -31 -40 -34 -38 -2 3 -13 -5 -23 -17 -10
-12 -18 -18 -19 -14 0 8 -13 -1 -51 -36 -10 -9 -26 -17 -34 -17 -8 0 -15 -4
-15 -10 0 -5 -7 -10 -15 -10 -28 0 -125 -76 -125 -98 0 -5 -11 -15 -25 -22
-13 -7 -22 -17 -19 -22 3 -4 0 -8 -6 -8 -6 0 -24 -14 -40 -30 -17 -17 -30 -28
-30 -25 0 3 -21 -16 -47 -42 -27 -26 -47 -51 -45 -56 1 -5 -2 -6 -7 -3 -5 4
-19 -8 -32 -25 -12 -17 -32 -42 -45 -56 -13 -14 -26 -34 -29 -44 -4 -11 -11
-19 -16 -19 -6 0 -8 -4 -5 -9 3 -5 -1 -11 -9 -15 -8 -3 -15 -10 -15 -16 0 -5
-20 -39 -45 -76 -25 -36 -45 -69 -45 -75 0 -5 -5 -9 -12 -9 -6 0 -9 -3 -5 -6
3 -4 1 -12 -6 -20 -30 -33 -37 -44 -31 -44 4 0 -2 -9 -14 -20 -12 -11 -30 -20
-41 -20 -11 0 -22 -4 -26 -10 -3 -5 -12 -7 -20 -3 -8 3 -15 1 -15 -4 0 -5 -8
-9 -17 -9 -10 -1 -38 -5 -63 -9 -25 -4 -53 -7 -62 -7 -17 1 -18 -18 -18 -264
l0 -264 48 -1 c248 -5 361 -5 383 2 16 4 31 3 38 -4 8 -8 11 -8 11 0 0 7 14 8
40 3 22 -4 40 -5 40 -1 0 8 85 5 99 -4 6 -3 11 -3 11 2 0 4 106 8 235 8 129 0
235 -4 235 -9 0 -4 15 -5 32 -2 47 10 929 13 935 3 5 -8 63 -6 63 3 0 4 91 4
203 2 111 -2 213 -4 227 -4 14 0 93 0 175 0 83 0 168 1 190 1 22 0 298 1 613
3 l572 2 -2 1926 -3 1925 -53 1 c-29 0 -53 -1 -55 -2z"/>
</g>
</svg>
